<?xml version="1.0" encoding="UTF-8" standalone="no"?>
<svg
   xmlns:dc="http://purl.org/dc/elements/1.1/"
   xmlns:cc="http://creativecommons.org/ns#"
   xmlns:rdf="http://www.w3.org/1999/02/22-rdf-syntax-ns#"
   xmlns:svg="http://www.w3.org/2000/svg"
   xmlns="http://www.w3.org/2000/svg"
   xmlns:sodipodi="http://sodipodi.sourceforge.net/DTD/sodipodi-0.dtd"
   xmlns:inkscape="http://www.inkscape.org/namespaces/inkscape"
   xml:space="preserve"
   version="1.1"
   style="image-rendering:optimizeQuality;shape-rendering:geometricPrecision;text-rendering:geometricPrecision"
   viewBox="0 0 734.03833 807.35071"
   x="0px"
   y="0px"
   fill-rule="evenodd"
   clip-rule="evenodd"
   id="svg76"
   sodipodi:docname="noun_Battery_1630004_white.svg"
   width="734.03833"
   height="807.35071"
   inkscape:version="1.0.1 (3bc2e813f5, 2020-09-07)"><metadata
     id="metadata80"><rdf:RDF><cc:Work
         rdf:about=""><dc:format>image/svg+xml</dc:format><dc:type
           rdf:resource="http://purl.org/dc/dcmitype/StillImage" /><dc:title></dc:title></cc:Work></rdf:RDF></metadata><sodipodi:namedview
     pagecolor="#ffffff"
     bordercolor="#666666"
     borderopacity="1"
     objecttolerance="10"
     gridtolerance="10"
     guidetolerance="10"
     inkscape:pageopacity="0"
     inkscape:pageshadow="2"
     inkscape:window-width="1596"
     inkscape:window-height="861"
     id="namedview78"
     showgrid="false"
     fit-margin-top="0"
     fit-margin-left="0"
     fit-margin-right="0"
     fit-margin-bottom="0"
     inkscape:zoom="0.43865447"
     inkscape:cx="-46.138902"
     inkscape:cy="303.64513"
     inkscape:window-x="0"
     inkscape:window-y="18"
     inkscape:window-maximized="1"
     inkscape:current-layer="svg76"
     inkscape:document-rotation="0" /><defs
     id="defs66"><style
       type="text/css"
       id="style64">

    .fil0 {fill:black}

  </style></defs><g
     id="g70"
     transform="translate(-56.413057,-19.5)"
     style="fill-opacity:1;fill-rule:evenodd;fill:#ffffff"><path
       class="fil0"
       d="m 300,391 58,58 h -58 z m 295,312 c 0,110 -343,110 -343,0 V 343 l -41,-41 v 400 c 0,165 395,160 423,23 l -39,-39 z m -295,-1 c 0,43 246,44 246,0 l 1,-64 -17,-17 H 300 Z m 0,-123 H 488 L 400,491 H 300 Z M 743,780 65,101 C 39,76 78,37 103,63 l 122,121 c 19,-36 57,-61 101,-61 V 45 c 0,-34 195,-34 195,0 v 78 c 63,0 115,51 115,115 v 357 l 146,146 c 26,26 -14,64 -39,39 z m -487,-565 44,44 c 0,-19 -3,-47 26,-47 h 195 c 14,0 26,11 26,26 v 81 H 360 l 42,42 h 145 v 88 h -57 l 42,42 h 15 v 15 l 48,48 V 238 c 0,-41 -33,-74 -74,-74 H 326 c -33,0 -60,21 -70,51 z"
       id="path68"
       style="fill-opacity:1;fill-rule:evenodd;fill:#ffffff" /></g></svg>
